<svg width="447" height="501" viewBox="0 0 447 501" fill="none" xmlns="http://www.w3.org/2000/svg">
<g filter="url(#filter0_d_45_9)">
<path d="M62 52H367V411H62V52Z" fill="white"/>
</g>
<path d="M105.712 362L115.696 339.6H120.816L130.832 362H125.392L117.2 342.224H119.248L111.024 362H105.712ZM110.704 357.2L112.08 353.264H123.6L125.008 357.2H110.704ZM140.04 362.256C138.418 362.256 136.957 361.893 135.656 361.168C134.354 360.421 133.32 359.387 132.552 358.064C131.805 356.741 131.432 355.184 131.432 353.392C131.432 351.579 131.805 350.011 132.552 348.688C133.32 347.365 134.354 346.341 135.656 345.616C136.957 344.891 138.418 344.528 140.04 344.528C141.49 344.528 142.76 344.848 143.848 345.488C144.936 346.128 145.778 347.099 146.376 348.4C146.973 349.701 147.272 351.365 147.272 353.392C147.272 355.397 146.984 357.061 146.408 358.384C145.832 359.685 145 360.656 143.912 361.296C142.845 361.936 141.554 362.256 140.04 362.256ZM140.904 358.16C141.714 358.16 142.45 357.968 143.112 357.584C143.773 357.2 144.296 356.656 144.68 355.952C145.085 355.227 145.288 354.373 145.288 353.392C145.288 352.389 145.085 351.536 144.68 350.832C144.296 350.128 143.773 349.584 143.112 349.2C142.45 348.816 141.714 348.624 140.904 348.624C140.072 348.624 139.325 348.816 138.664 349.2C138.002 349.584 137.469 350.128 137.064 350.832C136.68 351.536 136.488 352.389 136.488 353.392C136.488 354.373 136.68 355.227 137.064 355.952C137.469 356.656 138.002 357.2 138.664 357.584C139.325 357.968 140.072 358.16 140.904 358.16ZM145.416 362V358.48L145.512 353.36L145.192 348.272V338.256H150.184V362H145.416ZM162.196 362.256C160.575 362.256 159.113 361.893 157.812 361.168C156.511 360.421 155.476 359.387 154.708 358.064C153.961 356.741 153.588 355.184 153.588 353.392C153.588 351.579 153.961 350.011 154.708 348.688C155.476 347.365 156.511 346.341 157.812 345.616C159.113 344.891 160.575 344.528 162.196 344.528C163.647 344.528 164.916 344.848 166.004 345.488C167.092 346.128 167.935 347.099 168.532 348.4C169.129 349.701 169.428 351.365 169.428 353.392C169.428 355.397 169.14 357.061 168.564 358.384C167.988 359.685 167.156 360.656 166.068 361.296C165.001 361.936 163.711 362.256 162.196 362.256ZM163.06 358.16C163.871 358.16 164.607 357.968 165.268 357.584C165.929 357.2 166.452 356.656 166.836 355.952C167.241 355.227 167.444 354.373 167.444 353.392C167.444 352.389 167.241 351.536 166.836 350.832C166.452 350.128 165.929 349.584 165.268 349.2C164.607 348.816 163.871 348.624 163.06 348.624C162.228 348.624 161.481 348.816 160.82 349.2C160.159 349.584 159.625 350.128 159.22 350.832C158.836 351.536 158.644 352.389 158.644 353.392C158.644 354.373 158.836 355.227 159.22 355.952C159.625 356.656 160.159 357.2 160.82 357.584C161.481 357.968 162.228 358.16 163.06 358.16ZM167.572 362V358.48L167.668 353.36L167.348 348.272V338.256H172.34V362H167.572ZM186.375 362V339.6H196.071C198.076 339.6 199.804 339.931 201.255 340.592C202.705 341.232 203.825 342.16 204.615 343.376C205.404 344.592 205.799 346.043 205.799 347.728C205.799 349.392 205.404 350.832 204.615 352.048C203.825 353.264 202.705 354.203 201.255 354.864C199.804 355.504 198.076 355.824 196.071 355.824H189.255L191.559 353.488V362H186.375ZM191.559 354.064L189.255 351.6H195.783C197.383 351.6 198.577 351.259 199.367 350.576C200.156 349.893 200.551 348.944 200.551 347.728C200.551 346.491 200.156 345.531 199.367 344.848C198.577 344.165 197.383 343.824 195.783 343.824H189.255L191.559 341.36V354.064ZM209.117 362V344.784H213.885V349.648L213.213 348.24C213.725 347.024 214.546 346.107 215.677 345.488C216.807 344.848 218.183 344.528 219.805 344.528V349.136C219.591 349.115 219.399 349.104 219.229 349.104C219.058 349.083 218.877 349.072 218.685 349.072C217.319 349.072 216.21 349.467 215.357 350.256C214.525 351.024 214.109 352.229 214.109 353.872V362H209.117ZM230.84 362.256C229.005 362.256 227.373 361.872 225.944 361.104C224.536 360.336 223.416 359.291 222.584 357.968C221.773 356.624 221.368 355.099 221.368 353.392C221.368 351.664 221.773 350.139 222.584 348.816C223.416 347.472 224.536 346.427 225.944 345.68C227.373 344.912 229.005 344.528 230.84 344.528C232.653 344.528 234.274 344.912 235.704 345.68C237.133 346.427 238.253 347.461 239.064 348.784C239.874 350.107 240.28 351.643 240.28 353.392C240.28 355.099 239.874 356.624 239.064 357.968C238.253 359.291 237.133 360.336 235.704 361.104C234.274 361.872 232.653 362.256 230.84 362.256ZM230.84 358.16C231.672 358.16 232.418 357.968 233.08 357.584C233.741 357.2 234.264 356.656 234.648 355.952C235.032 355.227 235.224 354.373 235.224 353.392C235.224 352.389 235.032 351.536 234.648 350.832C234.264 350.128 233.741 349.584 233.08 349.2C232.418 348.816 231.672 348.624 230.84 348.624C230.008 348.624 229.261 348.816 228.6 349.2C227.938 349.584 227.405 350.128 227 350.832C226.616 351.536 226.424 352.389 226.424 353.392C226.424 354.373 226.616 355.227 227 355.952C227.405 356.656 227.938 357.2 228.6 357.584C229.261 357.968 230.008 358.16 230.84 358.16ZM242.337 368.464C241.569 368.464 240.832 368.379 240.128 368.208C239.424 368.059 238.827 367.824 238.336 367.504L239.68 363.888C240.256 364.293 240.961 364.496 241.793 364.496C242.411 364.496 242.902 364.283 243.265 363.856C243.649 363.451 243.841 362.832 243.841 362V344.784H248.833V361.968C248.833 363.952 248.267 365.531 247.137 366.704C246.006 367.877 244.406 368.464 242.337 368.464ZM246.337 342.384C245.419 342.384 244.673 342.117 244.097 341.584C243.521 341.051 243.233 340.389 243.233 339.6C243.233 338.811 243.521 338.149 244.097 337.616C244.673 337.083 245.419 336.816 246.337 336.816C247.254 336.816 248.001 337.072 248.577 337.584C249.153 338.075 249.441 338.715 249.441 339.504C249.441 340.336 249.153 341.029 248.577 341.584C248.022 342.117 247.275 342.384 246.337 342.384ZM261.973 362.256C260.01 362.256 258.282 361.872 256.789 361.104C255.317 360.336 254.176 359.291 253.365 357.968C252.554 356.624 252.149 355.099 252.149 353.392C252.149 351.664 252.544 350.139 253.333 348.816C254.144 347.472 255.242 346.427 256.629 345.68C258.016 344.912 259.584 344.528 261.333 344.528C263.018 344.528 264.533 344.891 265.877 345.616C267.242 346.32 268.32 347.344 269.109 348.688C269.898 350.011 270.293 351.6 270.293 353.456C270.293 353.648 270.282 353.872 270.261 354.128C270.24 354.363 270.218 354.587 270.197 354.8H256.213V351.888H267.573L265.653 352.752C265.653 351.856 265.472 351.077 265.109 350.416C264.746 349.755 264.245 349.243 263.605 348.88C262.965 348.496 262.218 348.304 261.365 348.304C260.512 348.304 259.754 348.496 259.093 348.88C258.453 349.243 257.952 349.765 257.589 350.448C257.226 351.109 257.045 351.899 257.045 352.816V353.584C257.045 354.523 257.248 355.355 257.653 356.08C258.08 356.784 258.666 357.328 259.413 357.712C260.181 358.075 261.077 358.256 262.101 358.256C263.018 358.256 263.818 358.117 264.501 357.84C265.205 357.563 265.845 357.147 266.421 356.592L269.077 359.472C268.288 360.368 267.296 361.061 266.101 361.552C264.906 362.021 263.53 362.256 261.973 362.256ZM281.937 362.256C280.081 362.256 278.427 361.883 276.977 361.136C275.526 360.368 274.385 359.312 273.553 357.968C272.742 356.624 272.337 355.099 272.337 353.392C272.337 351.664 272.742 350.139 273.553 348.816C274.385 347.472 275.526 346.427 276.977 345.68C278.427 344.912 280.081 344.528 281.937 344.528C283.75 344.528 285.329 344.912 286.673 345.68C288.017 346.427 289.009 347.504 289.649 348.912L285.777 350.992C285.329 350.181 284.763 349.584 284.081 349.2C283.419 348.816 282.694 348.624 281.905 348.624C281.051 348.624 280.283 348.816 279.601 349.2C278.918 349.584 278.374 350.128 277.969 350.832C277.585 351.536 277.393 352.389 277.393 353.392C277.393 354.395 277.585 355.248 277.969 355.952C278.374 356.656 278.918 357.2 279.601 357.584C280.283 357.968 281.051 358.16 281.905 358.16C282.694 358.16 283.419 357.979 284.081 357.616C284.763 357.232 285.329 356.624 285.777 355.792L289.649 357.904C289.009 359.291 288.017 360.368 286.673 361.136C285.329 361.883 283.75 362.256 281.937 362.256ZM299.813 362.256C297.786 362.256 296.207 361.744 295.077 360.72C293.946 359.675 293.381 358.128 293.381 356.08V340.976H298.373V356.016C298.373 356.741 298.565 357.307 298.949 357.712C299.333 358.096 299.855 358.288 300.517 358.288C301.306 358.288 301.978 358.075 302.533 357.648L303.877 361.168C303.365 361.531 302.746 361.808 302.021 362C301.317 362.171 300.581 362.256 299.813 362.256ZM290.725 349.008V345.168H302.661V349.008H290.725ZM312.471 362.256C310.999 362.256 309.58 362.085 308.215 361.744C306.871 361.381 305.804 360.933 305.015 360.4L306.679 356.816C307.468 357.307 308.396 357.712 309.463 358.032C310.551 358.331 311.618 358.48 312.663 358.48C313.815 358.48 314.626 358.341 315.095 358.064C315.586 357.787 315.831 357.403 315.831 356.912C315.831 356.507 315.639 356.208 315.255 356.016C314.892 355.803 314.402 355.643 313.783 355.536C313.164 355.429 312.482 355.323 311.735 355.216C311.01 355.109 310.274 354.971 309.527 354.8C308.78 354.608 308.098 354.331 307.479 353.968C306.86 353.605 306.359 353.115 305.975 352.496C305.612 351.877 305.431 351.077 305.431 350.096C305.431 349.008 305.74 348.048 306.359 347.216C306.999 346.384 307.916 345.733 309.111 345.264C310.306 344.773 311.735 344.528 313.399 344.528C314.572 344.528 315.767 344.656 316.983 344.912C318.199 345.168 319.212 345.541 320.023 346.032L318.359 349.584C317.527 349.093 316.684 348.763 315.831 348.592C314.999 348.4 314.188 348.304 313.399 348.304C312.29 348.304 311.479 348.453 310.967 348.752C310.455 349.051 310.199 349.435 310.199 349.904C310.199 350.331 310.38 350.651 310.743 350.864C311.127 351.077 311.628 351.248 312.247 351.376C312.866 351.504 313.538 351.621 314.263 351.728C315.01 351.813 315.756 351.952 316.503 352.144C317.25 352.336 317.922 352.613 318.519 352.976C319.138 353.317 319.639 353.797 320.023 354.416C320.407 355.013 320.599 355.803 320.599 356.784C320.599 357.851 320.279 358.8 319.639 359.632C318.999 360.443 318.071 361.083 316.855 361.552C315.66 362.021 314.199 362.256 312.471 362.256Z" fill="black"/>
<defs>
<filter id="filter0_d_45_9" x="0.300003" y="0.300003" width="446.4" height="500.4" filterUnits="userSpaceOnUse" color-interpolation-filters="sRGB">
<feFlood flood-opacity="0" result="BackgroundImageFix"/>
<feColorMatrix in="SourceAlpha" type="matrix" values="0 0 0 0 0 0 0 0 0 0 0 0 0 0 0 0 0 0 127 0" result="hardAlpha"/>
<feOffset dx="9" dy="19"/>
<feGaussianBlur stdDeviation="35.35"/>
<feComposite in2="hardAlpha" operator="out"/>
<feColorMatrix type="matrix" values="0 0 0 0 0 0 0 0 0 0 0 0 0 0 0 0 0 0 0.25 0"/>
<feBlend mode="normal" in2="BackgroundImageFix" result="effect1_dropShadow_45_9"/>
<feBlend mode="normal" in="SourceGraphic" in2="effect1_dropShadow_45_9" result="shape"/>
</filter>
</defs>
</svg>
