<svg width="135" height="155" viewBox="0 0 135 155" fill="none" xmlns="http://www.w3.org/2000/svg">
<path fill-rule="evenodd" clip-rule="evenodd" d="M107.28 135.291C107.125 133.931 105.91 132.965 104.552 133.104C88.511 134.475 75.4441 131.199 65.674 123.47C56.1616 115.943 49.95 104.142 47.1679 88.4736C46.5232 85.0233 46.2948 78.7415 46.9914 72.1071C52.1208 70.6177 56.9681 67.8602 60.8966 64.603C66.697 59.7912 70.1358 53.8326 70.3585 49.6827C70.4811 47.3841 69.8456 45.4001 68.562 43.7481C66.9165 41.6363 63.8228 39.8263 58.4916 39.9478C51.122 40.1327 45.7656 44.5802 42.3396 51.4744C40.5418 55.1013 39.3222 59.4474 38.5456 63.9443C35.2493 63.9212 32.0098 62.8287 29.248 60.0411C23.3667 54.1839 22.8222 45.0189 24.4201 36.0484C25.795 28.2821 28.6352 17.464 34.6782 11.934C36.7306 10.0538 39.1554 8.97299 38.8056 5.79477C38.293 0.900577 33.5475 1.69428 30.7244 4.27339C24.6632 9.81658 20.7558 19.2422 18.261 26.8634C13.6587 40.8793 13.5015 56.71 22.7517 66.4007C27.1062 70.9215 32.2563 72.9605 37.5203 73.2631C37.1294 80.2033 37.5991 86.5877 38.3603 90.2175C42.2729 107.997 50.0791 121.113 61.3526 129.208C72.6103 137.301 87.3204 140.468 105.093 138.019C106.454 137.865 107.434 136.652 107.28 135.291ZM49.4685 60.0243C50.2392 57.6996 51.2023 55.5824 52.4165 53.8109C53.964 51.561 55.9609 49.9295 58.7389 49.8705C59.2068 49.8641 59.8101 49.8148 60.2779 49.8084C59.8932 50.7133 59.0865 52.4528 58.1238 53.6525C55.9628 56.3203 52.7851 59.0043 49.173 60.9755C49.2591 60.635 49.356 60.3284 49.4685 60.0243Z" fill="#4D2C5E"/>
<path fill-rule="evenodd" clip-rule="evenodd" d="M60.6959 49.8109C60.7999 50.0688 60.927 50.2821 61.0329 50.1218C61.162 49.9169 61.0124 49.8449 60.6959 49.8109Z" fill="#4D2C5E"/>
<path fill-rule="evenodd" clip-rule="evenodd" d="M98.5801 135.232C96.1123 136.483 93.5724 137.884 91.3549 139.384C87.908 141.735 85.2073 144.253 84.2985 146.943C83.702 148.168 84.2236 149.651 85.4516 150.232C86.6771 150.829 88.1601 150.307 88.7409 149.079C89.1024 148.524 89.7109 148.138 90.3633 147.678C91.8888 146.583 93.9422 145.814 96.1652 144.991C99.0032 143.944 102.083 143.095 104.829 142.226C107.319 141.446 109.523 140.636 111.125 139.875C113.648 138.681 115.028 137.081 115.594 135.947C115.738 135.648 116.677 130.227 111.909 128.828C110.2 128.332 105.809 127.299 105.591 127.248C102.853 126.75 97.8085 125.774 93.6568 124.038C92.3428 123.492 91.0942 122.94 90.1291 122.224C90.149 122.098 90.1689 121.972 90.1731 121.844C90.3038 119.901 88.8449 118.237 86.9043 118.091C85.8811 117.945 84.0418 118.378 83.2382 118.879C81.683 119.856 81.3161 121.359 81.8492 123.278C82.5786 125.889 84.7802 128.25 87.7581 130.283C90.8988 132.406 95.0629 134.064 98.5801 135.232ZM106.757 131.473C107.294 131.236 107.605 130.996 107.378 130.702C107.125 130.372 106.9 131.077 106.757 131.473Z" fill="#4D2C5E"/>
</svg>
