<svg width="50" height="50" viewBox="0 0 50 50" fill="none" xmlns="http://www.w3.org/2000/svg">
<path d="M30.3761 21.4187C30.5253 22.6807 30.6318 23.9427 30.6318 25.5797C30.6318 39.8704 24.6418 50 15.625 50C6.99186 50 0 38.8131 0 25C0 11.1868 6.99186 0 15.625 0C19.8457 0 23.3629 2.4556 26.0914 6.54844L21.8494 13.0628C20.6982 11.2892 18.6733 9.20872 15.625 9.20872C10.2959 9.20872 5.94726 16.2687 5.94726 25C5.94726 33.7312 10.2959 40.7913 15.625 40.7913C21.8067 40.7913 24.1303 33.663 24.4926 30.0135H15.625V21.4186H30.3761V21.4187ZM45.4644 22.2569V15H40.9071V22.2569H36.3715V29.5487H40.9071V36.8056H45.4644V29.5487H50V22.2569H45.4644Z" fill="#1C296C"/>
</svg>
