<svg width="374" height="91" viewBox="0 0 374 91" fill="none" xmlns="http://www.w3.org/2000/svg">
<rect width="374" height="91" rx="45.5" fill="#1C296C"/>
<path d="M125.443 63V28.0909H131.767V57.6989H147.142V63H125.443ZM163.778 63.5114C161.222 63.5114 159.006 62.9489 157.131 61.8239C155.256 60.6989 153.801 59.125 152.767 57.1023C151.744 55.0795 151.233 52.7159 151.233 50.0114C151.233 47.3068 151.744 44.9375 152.767 42.9034C153.801 40.8693 155.256 39.2898 157.131 38.1648C159.006 37.0398 161.222 36.4773 163.778 36.4773C166.335 36.4773 168.551 37.0398 170.426 38.1648C172.301 39.2898 173.75 40.8693 174.773 42.9034C175.807 44.9375 176.324 47.3068 176.324 50.0114C176.324 52.7159 175.807 55.0795 174.773 57.1023C173.75 59.125 172.301 60.6989 170.426 61.8239C168.551 62.9489 166.335 63.5114 163.778 63.5114ZM163.812 58.5682C165.199 58.5682 166.358 58.1875 167.29 57.4261C168.222 56.6534 168.915 55.6193 169.369 54.3239C169.835 53.0284 170.068 51.5852 170.068 49.9943C170.068 48.392 169.835 46.9432 169.369 45.6477C168.915 44.3409 168.222 43.3011 167.29 42.5284C166.358 41.7557 165.199 41.3693 163.812 41.3693C162.392 41.3693 161.21 41.7557 160.267 42.5284C159.335 43.3011 158.636 44.3409 158.17 45.6477C157.716 46.9432 157.489 48.392 157.489 49.9943C157.489 51.5852 157.716 53.0284 158.17 54.3239C158.636 55.6193 159.335 56.6534 160.267 57.4261C161.21 58.1875 162.392 58.5682 163.812 58.5682ZM192.947 73.3636C190.732 73.3636 188.828 73.0625 187.237 72.4602C185.646 71.8693 184.368 71.0739 183.402 70.0739C182.436 69.0739 181.766 67.9659 181.391 66.75L186.947 65.4034C187.197 65.9148 187.561 66.4205 188.038 66.9205C188.516 67.4318 189.158 67.8523 189.964 68.1818C190.783 68.5227 191.811 68.6932 193.05 68.6932C194.8 68.6932 196.249 68.267 197.396 67.4148C198.544 66.5739 199.118 65.1875 199.118 63.2557V58.2955H198.811C198.493 58.9318 198.027 59.5852 197.413 60.2557C196.811 60.9261 196.01 61.4886 195.01 61.9432C194.021 62.3977 192.777 62.625 191.277 62.625C189.266 62.625 187.442 62.1534 185.805 61.2102C184.18 60.2557 182.885 58.8352 181.919 56.9489C180.964 55.0511 180.487 52.6761 180.487 49.8239C180.487 46.9489 180.964 44.5227 181.919 42.5455C182.885 40.5568 184.186 39.0511 185.822 38.0284C187.459 36.9943 189.283 36.4773 191.294 36.4773C192.828 36.4773 194.089 36.7386 195.078 37.2614C196.078 37.7727 196.874 38.392 197.464 39.1193C198.055 39.8352 198.504 40.5114 198.811 41.1477H199.152V36.8182H205.237V63.4261C205.237 65.6648 204.703 67.517 203.635 68.983C202.567 70.4489 201.107 71.5455 199.254 72.2727C197.402 73 195.3 73.3636 192.947 73.3636ZM192.999 57.7841C194.305 57.7841 195.419 57.4659 196.339 56.8295C197.26 56.1932 197.959 55.2784 198.436 54.0852C198.913 52.892 199.152 51.4602 199.152 49.7898C199.152 48.142 198.913 46.6989 198.436 45.4602C197.97 44.2216 197.277 43.2614 196.357 42.5795C195.447 41.8864 194.328 41.5398 192.999 41.5398C191.624 41.5398 190.476 41.8977 189.555 42.6136C188.635 43.3295 187.942 44.3125 187.476 45.5625C187.01 46.8011 186.777 48.2102 186.777 49.7898C186.777 51.392 187.01 52.7955 187.476 54C187.953 55.1932 188.652 56.125 189.572 56.7955C190.504 57.4545 191.646 57.7841 192.999 57.7841ZM211.561 63V36.8182H217.732V63H211.561ZM214.663 33.1023C213.686 33.1023 212.845 32.7784 212.141 32.1307C211.436 31.4716 211.084 30.6818 211.084 29.7614C211.084 28.8295 211.436 28.0398 212.141 27.392C212.845 26.733 213.686 26.4034 214.663 26.4034C215.652 26.4034 216.493 26.733 217.186 27.392C217.891 28.0398 218.243 28.8295 218.243 29.7614C218.243 30.6818 217.891 31.4716 217.186 32.1307C216.493 32.7784 215.652 33.1023 214.663 33.1023ZM230.247 47.6591V63H224.077V36.8182H229.974V41.267H230.281C230.884 39.8011 231.844 38.6364 233.162 37.7727C234.491 36.9091 236.134 36.4773 238.088 36.4773C239.895 36.4773 241.469 36.8636 242.81 37.6364C244.162 38.4091 245.207 39.5284 245.946 40.9943C246.696 42.4602 247.065 44.2386 247.054 46.3295V63H240.884V47.2841C240.884 45.5341 240.429 44.1648 239.52 43.1761C238.622 42.1875 237.378 41.6932 235.787 41.6932C234.707 41.6932 233.747 41.9318 232.906 42.4091C232.077 42.875 231.423 43.5511 230.946 44.4375C230.48 45.3239 230.247 46.3977 230.247 47.6591Z" fill="white"/>
</svg>
