<svg width="44" height="44" viewBox="0 0 44 44" fill="none" xmlns="http://www.w3.org/2000/svg">
<circle cx="22" cy="22" r="20" fill="white" stroke="black" stroke-width="4"/>
<path d="M24.2031 28.1719H20.4688C20.4792 27.224 20.5573 26.4115 20.7031 25.7344C20.8594 25.0573 21.1146 24.4479 21.4688 23.9062C21.8229 23.3542 22.3021 22.7917 22.9062 22.2188C23.3854 21.7708 23.8125 21.349 24.1875 20.9531C24.5729 20.5469 24.875 20.125 25.0938 19.6875C25.3125 19.2396 25.4219 18.7344 25.4219 18.1719C25.4219 17.5365 25.3177 17.0052 25.1094 16.5781C24.9115 16.151 24.6146 15.8281 24.2188 15.6094C23.8333 15.3802 23.349 15.2656 22.7656 15.2656C22.2865 15.2656 21.8333 15.3646 21.4062 15.5625C20.9792 15.7604 20.6354 16.0677 20.375 16.4844C20.1146 16.8906 19.974 17.4219 19.9531 18.0781H15.8125C15.8438 16.7135 16.1667 15.5781 16.7812 14.6719C17.3958 13.7552 18.224 13.0729 19.2656 12.625C20.3073 12.1667 21.474 11.9375 22.7656 11.9375C24.1927 11.9375 25.4115 12.1771 26.4219 12.6562C27.4427 13.125 28.2188 13.8125 28.75 14.7188C29.2917 15.625 29.5625 16.7188 29.5625 18C29.5625 18.9167 29.3854 19.7396 29.0312 20.4688C28.6771 21.1875 28.2083 21.8594 27.625 22.4844C27.0417 23.1094 26.4115 23.7396 25.7344 24.375C25.1406 24.9062 24.7396 25.474 24.5312 26.0781C24.3229 26.6823 24.2135 27.3802 24.2031 28.1719ZM20.0781 33.0312C20.0781 32.4062 20.2865 31.8854 20.7031 31.4688C21.1302 31.0521 21.7031 30.8438 22.4219 30.8438C23.1406 30.8438 23.7083 31.0521 24.125 31.4688C24.5521 31.8854 24.7656 32.4062 24.7656 33.0312C24.7656 33.6354 24.5521 34.1458 24.125 34.5625C23.7083 34.9792 23.1406 35.1875 22.4219 35.1875C21.7031 35.1875 21.1302 34.9792 20.7031 34.5625C20.2865 34.1458 20.0781 33.6354 20.0781 33.0312Z" fill="black"/>
</svg>
