<svg width="167" height="171" viewBox="0 0 167 171" fill="none" xmlns="http://www.w3.org/2000/svg">
<path d="M83.4651 35.625C71.0402 35.625 60.9252 46.077 60.9252 58.8537C60.9252 66.9364 64.9786 74.0731 71.0994 78.233C63.7067 80.7641 57.3099 85.4947 52.6181 91.6834C50.0241 89.6403 47.1257 87.9973 44.0012 86.8199C48.7393 83.2181 51.8356 77.4322 51.8356 70.9293C51.8356 60.0931 43.2766 51.2223 32.758 51.2223C22.2394 51.2223 13.6803 60.0931 13.6803 70.9293C13.6803 77.4359 16.7792 83.2245 21.5214 86.8263C8.96653 91.5702 0 103.99 0 118.607V128.875C0.00128502 129.658 0.30706 130.408 0.849225 130.959C1.39139 131.511 2.125 131.819 2.88944 131.817H46.8834C46.99 131.828 47.0966 131.835 47.2033 131.834H119.729C119.836 131.835 119.944 131.828 120.049 131.817H164.047C165.628 131.81 166.909 130.496 166.913 128.875V118.607C166.913 103.99 157.962 91.5702 145.414 86.825C150.156 83.2245 153.255 77.4345 153.255 70.928C153.255 60.0917 144.696 51.2209 134.177 51.2209C123.659 51.2209 115.099 60.0917 115.099 70.928C115.099 77.4308 118.197 83.2177 122.935 86.8186C119.804 87.9986 116.904 89.647 114.307 91.6951C109.617 85.5028 103.229 80.7656 95.8369 78.233C101.956 74.0731 106.011 66.9364 106.011 58.8537C106.011 46.077 95.8901 35.625 83.4651 35.625ZM83.4651 41.5186C92.7579 41.5186 100.249 49.241 100.249 58.8537C100.249 68.3913 92.8747 76.0386 83.6848 76.1612C83.6116 76.1612 83.5397 76.1506 83.4651 76.1506C83.3906 76.1506 83.32 76.1612 83.2455 76.1612C74.0556 76.0401 66.6859 68.3917 66.6859 58.8537C66.6859 49.2397 74.171 41.5186 83.4638 41.5186H83.4651ZM32.7583 57.1156C40.1316 57.1156 46.0802 63.2433 46.0802 70.929C46.0802 78.5631 40.2086 84.6645 32.9047 84.7474C32.8559 84.7474 32.8083 84.7421 32.7582 84.7421C32.7094 84.7421 32.6619 84.7474 32.6117 84.7474C25.3078 84.6645 19.4363 78.5617 19.4363 70.929C19.4363 63.2436 25.385 57.1156 32.7583 57.1156ZM134.175 57.1156C141.549 57.1156 147.497 63.2433 147.497 70.929C147.497 78.5631 141.626 84.6645 134.322 84.7474C134.273 84.7474 134.225 84.7421 134.175 84.7421C134.126 84.7421 134.079 84.7474 134.029 84.7474C126.725 84.6645 120.853 78.5617 120.853 70.929C120.853 63.2436 126.802 57.1156 134.175 57.1156ZM83.2448 82.0545C83.318 82.0558 83.39 82.065 83.4645 82.065C83.5377 82.065 83.6097 82.0545 83.6842 82.0545C102.114 82.1755 116.864 97.4083 116.864 116.477L116.863 125.938H50.0691V116.477C50.0691 97.4066 64.8144 82.1757 83.2421 82.0545H83.2448ZM32.5379 90.6478C32.6112 90.6491 32.6831 90.6583 32.7576 90.6583C32.8322 90.6583 32.9028 90.6478 32.9773 90.6478C39.211 90.6991 44.9 92.9 49.43 96.5822C46.1885 102.455 44.3139 109.234 44.3139 116.478V125.917H5.75346V118.607C5.75346 103.11 17.6531 90.7687 32.5373 90.6464L32.5379 90.6478ZM133.955 90.6478C134.029 90.6491 134.1 90.6583 134.175 90.6583C134.249 90.6583 134.32 90.6478 134.394 90.6478C149.278 90.7688 161.178 103.111 161.178 118.608V125.917H122.598L122.597 116.478C122.597 109.238 120.727 102.464 117.492 96.5926C122.023 92.9052 127.716 90.699 133.955 90.6478Z" fill="#7A8AB5"/>
</svg>
