<svg width="447" height="501" viewBox="0 0 447 501" fill="none" xmlns="http://www.w3.org/2000/svg">
<g filter="url(#filter0_d_45_7)">
<path d="M62 52H367V411H62V52Z" fill="white"/>
</g>
<path d="M214.465 181.625C202.04 181.625 191.925 192.077 191.925 204.854C191.925 212.936 195.979 220.073 202.099 224.233C194.707 226.764 188.31 231.495 183.618 237.683C181.024 235.64 178.126 233.997 175.001 232.82C179.739 229.218 182.836 223.432 182.836 216.929C182.836 206.093 174.277 197.222 163.758 197.222C153.239 197.222 144.68 206.093 144.68 216.929C144.68 223.436 147.779 229.224 152.521 232.826C139.967 237.57 131 249.99 131 264.607V274.875C131.001 275.658 131.307 276.408 131.849 276.959C132.391 277.511 133.125 277.819 133.889 277.817H177.883C177.99 277.828 178.097 277.835 178.203 277.834H250.729C250.836 277.835 250.944 277.828 251.049 277.817H295.047C296.628 277.81 297.909 276.496 297.913 274.875V264.607C297.913 249.99 288.962 237.57 276.414 232.825C281.156 229.224 284.255 223.435 284.255 216.928C284.255 206.092 275.696 197.221 265.177 197.221C254.659 197.221 246.099 206.092 246.099 216.928C246.099 223.431 249.197 229.218 253.935 232.819C250.804 233.999 247.904 235.647 245.307 237.695C240.617 231.503 234.229 226.766 226.837 224.233C232.956 220.073 237.011 212.936 237.011 204.854C237.011 192.077 226.89 181.625 214.465 181.625ZM214.465 187.519C223.758 187.519 231.249 195.241 231.249 204.854C231.249 214.391 223.875 222.039 214.685 222.161C214.612 222.161 214.54 222.151 214.465 222.151C214.391 222.151 214.32 222.161 214.245 222.161C205.056 222.04 197.686 214.392 197.686 204.854C197.686 195.24 205.171 187.519 214.464 187.519H214.465ZM163.758 203.116C171.132 203.116 177.08 209.243 177.08 216.929C177.08 224.563 171.209 230.665 163.905 230.747C163.856 230.747 163.808 230.742 163.758 230.742C163.709 230.742 163.662 230.747 163.612 230.747C156.308 230.665 150.436 224.562 150.436 216.929C150.436 209.244 156.385 203.116 163.758 203.116ZM265.175 203.116C272.549 203.116 278.497 209.243 278.497 216.929C278.497 224.563 272.626 230.665 265.322 230.747C265.273 230.747 265.225 230.742 265.175 230.742C265.126 230.742 265.079 230.747 265.029 230.747C257.725 230.665 251.853 224.562 251.853 216.929C251.853 209.244 257.802 203.116 265.175 203.116ZM214.245 228.054C214.318 228.056 214.39 228.065 214.464 228.065C214.538 228.065 214.61 228.054 214.684 228.054C233.114 228.176 247.864 243.408 247.864 262.477L247.863 271.938H181.069V262.477C181.069 243.407 195.814 228.176 214.242 228.054H214.245ZM163.538 236.648C163.611 236.649 163.683 236.658 163.758 236.658C163.832 236.658 163.903 236.648 163.977 236.648C170.211 236.699 175.9 238.9 180.43 242.582C177.189 248.455 175.314 255.234 175.314 262.478V271.917H136.753V264.607C136.753 249.11 148.653 236.769 163.537 236.646L163.538 236.648ZM264.955 236.648C265.029 236.649 265.1 236.658 265.175 236.658C265.249 236.658 265.32 236.648 265.394 236.648C280.278 236.769 292.178 249.111 292.178 264.608V271.917H253.598L253.597 262.478C253.597 255.238 251.727 248.464 248.492 242.593C253.023 238.905 258.716 236.699 264.955 236.648Z" fill="#7A8AB5"/>
<path d="M146.656 357V334.6H150.944L160.48 350.408H158.208L167.584 334.6H171.84L171.904 357H167.04L167.008 342.056H167.904L160.416 354.632H158.08L150.432 342.056H151.52V357H146.656ZM179.043 363.464C178.147 363.464 177.261 363.325 176.387 363.048C175.512 362.771 174.797 362.387 174.242 361.896L176.067 358.344C176.451 358.685 176.888 358.952 177.379 359.144C177.891 359.336 178.392 359.432 178.883 359.432C179.587 359.432 180.141 359.261 180.547 358.92C180.973 358.6 181.357 358.056 181.699 357.288L182.595 355.176L182.979 354.632L189.155 339.784H193.955L186.179 358.056C185.624 359.443 184.984 360.531 184.259 361.32C183.555 362.109 182.765 362.664 181.891 362.984C181.037 363.304 180.088 363.464 179.043 363.464ZM181.987 357.672L174.306 339.784H179.459L185.411 354.184L181.987 357.672ZM210.046 357V338.824H202.878V334.6H222.398V338.824H215.23V357H210.046ZM231.629 357.256C229.667 357.256 227.939 356.872 226.445 356.104C224.973 355.336 223.832 354.291 223.021 352.968C222.211 351.624 221.805 350.099 221.805 348.392C221.805 346.664 222.2 345.139 222.989 343.816C223.8 342.472 224.899 341.427 226.285 340.68C227.672 339.912 229.24 339.528 230.989 339.528C232.675 339.528 234.189 339.891 235.533 340.616C236.899 341.32 237.976 342.344 238.765 343.688C239.555 345.011 239.949 346.6 239.949 348.456C239.949 348.648 239.939 348.872 239.917 349.128C239.896 349.363 239.875 349.587 239.853 349.8H225.869V346.888H237.229L235.309 347.752C235.309 346.856 235.128 346.077 234.765 345.416C234.403 344.755 233.901 344.243 233.261 343.88C232.621 343.496 231.875 343.304 231.021 343.304C230.168 343.304 229.411 343.496 228.749 343.88C228.109 344.243 227.608 344.765 227.245 345.448C226.883 346.109 226.701 346.899 226.701 347.816V348.584C226.701 349.523 226.904 350.355 227.309 351.08C227.736 351.784 228.323 352.328 229.069 352.712C229.837 353.075 230.733 353.256 231.757 353.256C232.675 353.256 233.475 353.117 234.157 352.84C234.861 352.563 235.501 352.147 236.077 351.592L238.733 354.472C237.944 355.368 236.952 356.061 235.757 356.552C234.563 357.021 233.187 357.256 231.629 357.256ZM253.364 357V353.64L253.044 352.904V346.888C253.044 345.821 252.713 344.989 252.052 344.392C251.412 343.795 250.42 343.496 249.076 343.496C248.159 343.496 247.252 343.645 246.356 343.944C245.481 344.221 244.735 344.605 244.116 345.096L242.324 341.608C243.263 340.947 244.393 340.435 245.716 340.072C247.039 339.709 248.383 339.528 249.748 339.528C252.372 339.528 254.409 340.147 255.86 341.384C257.311 342.621 258.036 344.552 258.036 347.176V357H253.364ZM248.116 357.256C246.772 357.256 245.62 357.032 244.66 356.584C243.7 356.115 242.964 355.485 242.452 354.696C241.94 353.907 241.684 353.021 241.684 352.04C241.684 351.016 241.929 350.12 242.42 349.352C242.932 348.584 243.732 347.987 244.82 347.56C245.908 347.112 247.327 346.888 249.076 346.888H253.652V349.8H249.62C248.447 349.8 247.636 349.992 247.188 350.376C246.761 350.76 246.548 351.24 246.548 351.816C246.548 352.456 246.793 352.968 247.284 353.352C247.796 353.715 248.489 353.896 249.364 353.896C250.196 353.896 250.943 353.704 251.604 353.32C252.265 352.915 252.745 352.328 253.044 351.56L253.812 353.864C253.449 354.973 252.788 355.816 251.828 356.392C250.868 356.968 249.631 357.256 248.116 357.256ZM284.602 339.528C285.967 339.528 287.173 339.805 288.218 340.36C289.285 340.893 290.117 341.725 290.714 342.856C291.333 343.965 291.642 345.395 291.642 347.144V357H286.65V347.912C286.65 346.525 286.362 345.501 285.786 344.84C285.21 344.179 284.399 343.848 283.354 343.848C282.629 343.848 281.978 344.019 281.402 344.36C280.826 344.68 280.378 345.171 280.058 345.832C279.738 346.493 279.578 347.336 279.578 348.36V357H274.586V347.912C274.586 346.525 274.298 345.501 273.722 344.84C273.167 344.179 272.367 343.848 271.322 343.848C270.597 343.848 269.946 344.019 269.37 344.36C268.794 344.68 268.346 345.171 268.026 345.832C267.706 346.493 267.546 347.336 267.546 348.36V357H262.554V339.784H267.322V344.488L266.426 343.112C267.023 341.939 267.866 341.053 268.954 340.456C270.063 339.837 271.322 339.528 272.73 339.528C274.309 339.528 275.685 339.933 276.858 340.744C278.053 341.533 278.842 342.749 279.226 344.392L277.466 343.912C278.042 342.568 278.959 341.501 280.218 340.712C281.498 339.923 282.959 339.528 284.602 339.528Z" fill="black"/>
<defs>
<filter id="filter0_d_45_7" x="0.300003" y="0.300003" width="446.4" height="500.4" filterUnits="userSpaceOnUse" color-interpolation-filters="sRGB">
<feFlood flood-opacity="0" result="BackgroundImageFix"/>
<feColorMatrix in="SourceAlpha" type="matrix" values="0 0 0 0 0 0 0 0 0 0 0 0 0 0 0 0 0 0 127 0" result="hardAlpha"/>
<feOffset dx="9" dy="19"/>
<feGaussianBlur stdDeviation="35.35"/>
<feComposite in2="hardAlpha" operator="out"/>
<feColorMatrix type="matrix" values="0 0 0 0 0 0 0 0 0 0 0 0 0 0 0 0 0 0 0.25 0"/>
<feBlend mode="normal" in2="BackgroundImageFix" result="effect1_dropShadow_45_7"/>
<feBlend mode="normal" in="SourceGraphic" in2="effect1_dropShadow_45_7" result="shape"/>
</filter>
</defs>
</svg>
