<svg width="632" height="205" viewBox="0 0 632 205" fill="none" xmlns="http://www.w3.org/2000/svg">
<rect width="532" height="205" rx="7" fill="#A9B7FF"/>
<path d="M95.101 86.924C90.789 86.924 86.6567 86.3593 82.704 85.23C78.7513 84.0493 75.5687 82.535 73.156 80.687L77.391 71.293C79.701 72.9357 82.4217 74.296 85.553 75.374C88.7357 76.4007 91.944 76.914 95.178 76.914C97.642 76.914 99.6183 76.683 101.107 76.221C102.647 75.7077 103.776 75.0147 104.495 74.142C105.214 73.2693 105.573 72.2683 105.573 71.139C105.573 69.7017 105.008 68.5723 103.879 67.751C102.75 66.8783 101.261 66.1853 99.413 65.672C97.565 65.1073 95.5117 64.594 93.253 64.132C91.0457 63.6187 88.8127 63.0027 86.554 62.284C84.3467 61.5653 82.319 60.6413 80.471 59.512C78.623 58.3827 77.1087 56.894 75.928 55.046C74.7987 53.198 74.234 50.8367 74.234 47.962C74.234 44.882 75.0553 42.0843 76.698 39.569C78.392 37.0023 80.9073 34.9747 84.244 33.486C87.632 31.946 91.867 31.176 96.949 31.176C100.337 31.176 103.674 31.5867 106.959 32.408C110.244 33.178 113.145 34.3587 115.66 35.95L111.81 45.421C109.295 43.9837 106.779 42.9313 104.264 42.264C101.749 41.5453 99.2847 41.186 96.872 41.186C94.4593 41.186 92.483 41.4683 90.943 42.033C89.403 42.5977 88.2993 43.342 87.632 44.266C86.9647 45.1387 86.631 46.1653 86.631 47.346C86.631 48.732 87.1957 49.8613 88.325 50.734C89.4543 51.5553 90.943 52.2227 92.791 52.736C94.639 53.2493 96.6667 53.7627 98.874 54.276C101.133 54.7893 103.366 55.3797 105.573 56.047C107.832 56.7143 109.885 57.6127 111.733 58.742C113.581 59.8713 115.07 61.36 116.199 63.208C117.38 65.056 117.97 67.3917 117.97 70.215C117.97 73.2437 117.123 76.0157 115.429 78.531C113.735 81.0463 111.194 83.074 107.806 84.614C104.469 86.154 100.234 86.924 95.101 86.924ZM145.359 86.616C140.944 86.616 137.017 85.692 133.578 83.844C130.19 81.996 127.495 79.4807 125.493 76.298C123.542 73.064 122.567 69.3937 122.567 65.287C122.567 61.129 123.542 57.4587 125.493 54.276C127.495 51.042 130.19 48.5267 133.578 46.73C137.017 44.882 140.944 43.958 145.359 43.958C149.722 43.958 153.623 44.882 157.063 46.73C160.502 48.5267 163.197 51.0163 165.148 54.199C167.098 57.3817 168.074 61.0777 168.074 65.287C168.074 69.3937 167.098 73.064 165.148 76.298C163.197 79.4807 160.502 81.996 157.063 83.844C153.623 85.692 149.722 86.616 145.359 86.616ZM145.359 76.76C147.361 76.76 149.157 76.298 150.749 75.374C152.34 74.45 153.598 73.141 154.522 71.447C155.446 69.7017 155.908 67.6483 155.908 65.287C155.908 62.8743 155.446 60.821 154.522 59.127C153.598 57.433 152.34 56.124 150.749 55.2C149.157 54.276 147.361 53.814 145.359 53.814C143.357 53.814 141.56 54.276 139.969 55.2C138.377 56.124 137.094 57.433 136.119 59.127C135.195 60.821 134.733 62.8743 134.733 65.287C134.733 67.6483 135.195 69.7017 136.119 71.447C137.094 73.141 138.377 74.45 139.969 75.374C141.56 76.298 143.357 76.76 145.359 76.76ZM229.156 43.958C232.441 43.958 235.341 44.6253 237.857 45.96C240.423 47.2433 242.425 49.2453 243.863 51.966C245.351 54.6353 246.096 58.0747 246.096 62.284V86H234.084V64.132C234.084 60.7953 233.391 58.3313 232.005 56.74C230.619 55.1487 228.668 54.353 226.153 54.353C224.407 54.353 222.842 54.7637 221.456 55.585C220.07 56.355 218.992 57.5357 218.222 59.127C217.452 60.7183 217.067 62.746 217.067 65.21V86H205.055V64.132C205.055 60.7953 204.362 58.3313 202.976 56.74C201.641 55.1487 199.716 54.353 197.201 54.353C195.455 54.353 193.89 54.7637 192.504 55.585C191.118 56.355 190.04 57.5357 189.27 59.127C188.5 60.7183 188.115 62.746 188.115 65.21V86H176.103V44.574H187.576V55.893L185.42 52.582C186.857 49.7587 188.885 47.6283 191.503 46.191C194.172 44.7023 197.201 43.958 200.589 43.958C204.387 43.958 207.698 44.9333 210.522 46.884C213.396 48.7833 215.296 51.7093 216.22 55.662L211.985 54.507C213.371 51.273 215.578 48.7063 218.607 46.807C221.687 44.9077 225.203 43.958 229.156 43.958ZM273.802 86.616C268.926 86.616 265.127 85.384 262.406 82.92C259.686 80.4047 258.325 76.683 258.325 71.755V35.411H270.337V71.601C270.337 73.3463 270.799 74.7067 271.723 75.682C272.647 76.606 273.905 77.068 275.496 77.068C277.396 77.068 279.013 76.5547 280.347 75.528L283.581 83.998C282.349 84.8707 280.861 85.538 279.115 86C277.421 86.4107 275.65 86.616 273.802 86.616ZM251.934 54.738V45.498H280.655V54.738H251.934ZM315.503 43.958C318.789 43.958 321.715 44.6253 324.281 45.96C326.899 47.2433 328.953 49.2453 330.441 51.966C331.93 54.6353 332.674 58.0747 332.674 62.284V86H320.662V64.132C320.662 60.7953 319.918 58.3313 318.429 56.74C316.992 55.1487 314.939 54.353 312.269 54.353C310.37 54.353 308.65 54.7637 307.11 55.585C305.622 56.355 304.441 57.5613 303.568 59.204C302.747 60.8467 302.336 62.9513 302.336 65.518V86H290.324V28.866H302.336V56.047L299.641 52.582C301.13 49.81 303.26 47.6797 306.032 46.191C308.804 44.7023 311.961 43.958 315.503 43.958ZM343.563 86V44.574H355.575V86H343.563ZM349.569 38.799C347.361 38.799 345.565 38.1573 344.179 36.874C342.793 35.5907 342.1 33.9993 342.1 32.1C342.1 30.2007 342.793 28.6093 344.179 27.326C345.565 26.0427 347.361 25.401 349.569 25.401C351.776 25.401 353.573 26.017 354.959 27.249C356.345 28.4297 357.038 29.9697 357.038 31.869C357.038 33.871 356.345 35.5393 354.959 36.874C353.624 38.1573 351.827 38.799 349.569 38.799ZM391.902 43.958C395.187 43.958 398.113 44.6253 400.68 45.96C403.298 47.2433 405.351 49.2453 406.84 51.966C408.328 54.6353 409.073 58.0747 409.073 62.284V86H397.061V64.132C397.061 60.7953 396.316 58.3313 394.828 56.74C393.39 55.1487 391.337 54.353 388.668 54.353C386.768 54.353 385.049 54.7637 383.509 55.585C382.02 56.355 380.839 57.5613 379.967 59.204C379.145 60.8467 378.735 62.9513 378.735 65.518V86H366.723V44.574H378.196V56.047L376.04 52.582C377.528 49.81 379.659 47.6797 382.431 46.191C385.203 44.7023 388.36 43.958 391.902 43.958ZM439.743 101.554C435.841 101.554 432.068 101.066 428.424 100.091C424.83 99.167 421.827 97.7553 419.415 95.856L424.189 87.232C425.934 88.6693 428.141 89.7987 430.811 90.62C433.531 91.4927 436.201 91.929 438.819 91.929C443.079 91.929 446.159 90.9793 448.059 89.08C450.009 87.1807 450.985 84.3573 450.985 80.61V74.373L451.755 63.978L451.601 53.506V44.574H462.997V79.07C462.997 86.77 460.995 92.4423 456.991 96.087C452.987 99.7317 447.237 101.554 439.743 101.554ZM437.895 83.998C434.045 83.998 430.554 83.1767 427.423 81.534C424.343 79.84 421.853 77.5043 419.954 74.527C418.106 71.4983 417.182 67.982 417.182 63.978C417.182 59.9227 418.106 56.4063 419.954 53.429C421.853 50.4003 424.343 48.0647 427.423 46.422C430.554 44.7793 434.045 43.958 437.895 43.958C441.385 43.958 444.465 44.6767 447.135 46.114C449.804 47.5 451.883 49.6817 453.372 52.659C454.86 55.585 455.605 59.358 455.605 63.978C455.605 68.5467 454.86 72.3197 453.372 75.297C451.883 78.223 449.804 80.4047 447.135 81.842C444.465 83.2793 441.385 83.998 437.895 83.998ZM440.282 74.142C442.386 74.142 444.26 73.7313 445.903 72.91C447.545 72.0373 448.829 70.831 449.753 69.291C450.677 67.751 451.139 65.98 451.139 63.978C451.139 61.9247 450.677 60.1537 449.753 58.665C448.829 57.125 447.545 55.9443 445.903 55.123C444.26 54.2503 442.386 53.814 440.282 53.814C438.177 53.814 436.303 54.2503 434.661 55.123C433.018 55.9443 431.709 57.125 430.734 58.665C429.81 60.1537 429.348 61.9247 429.348 63.978C429.348 65.98 429.81 67.751 430.734 69.291C431.709 70.831 433.018 72.0373 434.661 72.91C436.303 73.7313 438.177 74.142 440.282 74.142ZM70.307 163L94.331 109.1H106.651L130.752 163H117.662L97.95 115.414H102.878L83.089 163H70.307ZM82.319 151.45L85.63 141.979H113.35L116.738 151.45H82.319ZM159.983 163.616C156.338 163.616 153.207 162.846 150.589 161.306C147.971 159.766 145.969 157.43 144.583 154.299C143.197 151.116 142.504 147.112 142.504 142.287C142.504 137.41 143.223 133.406 144.66 130.275C146.149 127.144 148.202 124.808 150.82 123.268C153.438 121.728 156.492 120.958 159.983 120.958C163.884 120.958 167.375 121.831 170.455 123.576C173.586 125.321 176.05 127.785 177.847 130.968C179.695 134.151 180.619 137.924 180.619 142.287C180.619 146.599 179.695 150.346 177.847 153.529C176.05 156.712 173.586 159.201 170.455 160.998C167.375 162.743 163.884 163.616 159.983 163.616ZM135.497 163V105.866H147.509V129.967L146.739 142.21L146.97 154.53V163H135.497ZM157.904 153.76C159.906 153.76 161.677 153.298 163.217 152.374C164.808 151.45 166.066 150.141 166.99 148.447C167.965 146.702 168.453 144.648 168.453 142.287C168.453 139.874 167.965 137.821 166.99 136.127C166.066 134.433 164.808 133.124 163.217 132.2C161.677 131.276 159.906 130.814 157.904 130.814C155.902 130.814 154.105 131.276 152.514 132.2C150.923 133.124 149.665 134.433 148.741 136.127C147.817 137.821 147.355 139.874 147.355 142.287C147.355 144.648 147.817 146.702 148.741 148.447C149.665 150.141 150.923 151.45 152.514 152.374C154.105 153.298 155.902 153.76 157.904 153.76ZM208.372 163.616C203.958 163.616 200.031 162.692 196.591 160.844C193.203 158.996 190.508 156.481 188.506 153.298C186.556 150.064 185.58 146.394 185.58 142.287C185.58 138.129 186.556 134.459 188.506 131.276C190.508 128.042 193.203 125.527 196.591 123.73C200.031 121.882 203.958 120.958 208.372 120.958C212.736 120.958 216.637 121.882 220.076 123.73C223.516 125.527 226.211 128.016 228.161 131.199C230.112 134.382 231.087 138.078 231.087 142.287C231.087 146.394 230.112 150.064 228.161 153.298C226.211 156.481 223.516 158.996 220.076 160.844C216.637 162.692 212.736 163.616 208.372 163.616ZM208.372 153.76C210.374 153.76 212.171 153.298 213.762 152.374C215.354 151.45 216.611 150.141 217.535 148.447C218.459 146.702 218.921 144.648 218.921 142.287C218.921 139.874 218.459 137.821 217.535 136.127C216.611 134.433 215.354 133.124 213.762 132.2C212.171 131.276 210.374 130.814 208.372 130.814C206.37 130.814 204.574 131.276 202.982 132.2C201.391 133.124 200.108 134.433 199.132 136.127C198.208 137.821 197.746 139.874 197.746 142.287C197.746 144.648 198.208 146.702 199.132 148.447C200.108 150.141 201.391 151.45 202.982 152.374C204.574 153.298 206.37 153.76 208.372 153.76ZM256.595 163.616C253.156 163.616 250.076 162.949 247.355 161.614C244.686 160.279 242.607 158.252 241.118 155.531C239.63 152.759 238.885 149.243 238.885 144.982V121.574H250.897V143.211C250.897 146.65 251.616 149.191 253.053 150.834C254.542 152.425 256.621 153.221 259.29 153.221C261.138 153.221 262.781 152.836 264.218 152.066C265.656 151.245 266.785 150.013 267.606 148.37C268.428 146.676 268.838 144.571 268.838 142.056V121.574H280.85V163H269.454V151.604L271.533 154.915C270.147 157.79 268.094 159.971 265.373 161.46C262.704 162.897 259.778 163.616 256.595 163.616ZM308.919 163.616C304.042 163.616 300.243 162.384 297.523 159.92C294.802 157.405 293.442 153.683 293.442 148.755V112.411H305.454V148.601C305.454 150.346 305.916 151.707 306.84 152.682C307.764 153.606 309.021 154.068 310.613 154.068C312.512 154.068 314.129 153.555 315.464 152.528L318.698 160.998C317.466 161.871 315.977 162.538 314.232 163C312.538 163.411 310.767 163.616 308.919 163.616ZM287.051 131.738V122.498H315.772V131.738H287.051ZM372.041 163.924C364.392 163.924 358.412 161.794 354.1 157.533C349.788 153.272 347.632 147.189 347.632 139.284V109.1H360.106V138.822C360.106 143.955 361.158 147.651 363.263 149.91C365.368 152.169 368.319 153.298 372.118 153.298C375.917 153.298 378.868 152.169 380.973 149.91C383.078 147.651 384.13 143.955 384.13 138.822V109.1H396.45V139.284C396.45 147.189 394.294 153.272 389.982 157.533C385.67 161.794 379.69 163.924 372.041 163.924ZM421.867 163.616C418.325 163.616 414.911 163.205 411.626 162.384C408.392 161.511 405.825 160.433 403.926 159.15L407.93 150.526C409.829 151.707 412.062 152.682 414.629 153.452C417.247 154.171 419.813 154.53 422.329 154.53C425.101 154.53 427.051 154.196 428.181 153.529C429.361 152.862 429.952 151.938 429.952 150.757C429.952 149.782 429.49 149.063 428.566 148.601C427.693 148.088 426.512 147.703 425.024 147.446C423.535 147.189 421.892 146.933 420.096 146.676C418.35 146.419 416.579 146.086 414.783 145.675C412.986 145.213 411.343 144.546 409.855 143.673C408.366 142.8 407.16 141.62 406.236 140.131C405.363 138.642 404.927 136.717 404.927 134.356C404.927 131.738 405.671 129.428 407.16 127.426C408.7 125.424 410.907 123.858 413.782 122.729C416.656 121.548 420.096 120.958 424.1 120.958C426.923 120.958 429.798 121.266 432.724 121.882C435.65 122.498 438.088 123.396 440.039 124.577L436.035 133.124C434.033 131.943 432.005 131.148 429.952 130.737C427.95 130.275 425.999 130.044 424.1 130.044C421.43 130.044 419.48 130.403 418.248 131.122C417.016 131.841 416.4 132.765 416.4 133.894C416.4 134.921 416.836 135.691 417.709 136.204C418.633 136.717 419.839 137.128 421.328 137.436C422.816 137.744 424.433 138.026 426.179 138.283C427.975 138.488 429.772 138.822 431.569 139.284C433.365 139.746 434.982 140.413 436.42 141.286C437.908 142.107 439.115 143.262 440.039 144.751C440.963 146.188 441.425 148.088 441.425 150.449C441.425 153.016 440.655 155.3 439.115 157.302C437.575 159.253 435.342 160.793 432.416 161.922C429.541 163.051 426.025 163.616 421.867 163.616Z" fill="#1C296C"/>
</svg>
